<svg width="30" height="31" viewBox="0 0 30 31" fill="none" xmlns="http://www.w3.org/2000/svg">
<path d="M9.5625 14.1875V22.6875C9.5625 23.2852 9.03125 23.75 8.5 23.75C7.90234 23.75 7.4375 23.2852 7.4375 22.6875V14.1875C7.4375 13.6562 7.90234 13.125 8.5 13.125C9.03125 13.125 9.5625 13.6562 9.5625 14.1875ZM13.8125 7.8125C13.8125 7.28125 14.2773 6.75 14.875 6.75C15.4062 6.75 15.9375 7.28125 15.9375 7.8125V22.6875C15.9375 23.2852 15.4062 23.75 14.875 23.75C14.2773 23.75 13.8125 23.2852 13.8125 22.6875V7.8125ZM22.3125 18.4375V22.6875C22.3125 23.2852 21.7812 23.75 21.25 23.75C20.6523 23.75 20.1875 23.2852 20.1875 22.6875V18.4375C20.1875 17.9062 20.6523 17.375 21.25 17.375C21.7812 17.375 22.3125 17.9062 22.3125 18.4375ZM0 4.625C0 2.30078 1.85938 0.375 4.25 0.375H25.5C27.8242 0.375 29.75 2.30078 29.75 4.625V25.875C29.75 28.2656 27.8242 30.125 25.5 30.125H4.25C1.85938 30.125 0 28.2656 0 25.875V4.625ZM2.125 4.625V25.875C2.125 27.0703 3.05469 28 4.25 28H25.5C26.6289 28 27.625 27.0703 27.625 25.875V4.625C27.625 3.49609 26.6289 2.5 25.5 2.5H4.25C3.05469 2.5 2.125 3.49609 2.125 4.625Z" fill="#C07858"/>
<rect opacity="0.2" x="1" y="1" width="28" height="28" rx="3" fill="#C07858"/>
</svg>
