<svg width="156" height="156" viewBox="0 0 156 156" fill="none" xmlns="http://www.w3.org/2000/svg">
<mask id="mask0_2_669" style="mask-type:luminance" maskUnits="userSpaceOnUse" x="0" y="0" width="156" height="156">
<path d="M78 0C121.083 0 156 34.9306 156 78C156 121.083 121.069 156 78 156C34.9306 156.014 0 121.083 0 78C0 34.9306 34.9306 0 78 0Z" fill="white"/>
</mask>
<g mask="url(#mask0_2_669)">
<path d="M11.5376 39.0962C9.20426 43.1378 7.23204 47.374 5.6626 51.7767L137.426 127.86C140.44 124.304 143.135 120.471 145.468 116.43L145.982 115.541L12.0515 38.2212L11.5237 39.0962H11.5376Z" fill="#C07858"/>
<path d="M116.958 10.5822C103.417 2.74883 87.8193 -0.778948 72.2221 0.443274C56.6249 1.6655 41.7776 7.58216 29.611 17.4294L154.667 89.6238C157.111 74.1794 154.805 58.3599 148.069 44.2488C141.333 30.1377 130.486 18.4016 116.944 10.5822H116.958Z" fill="#C07858"/>
<path d="M14.3042 34.1367L147.888 111.262C150.804 105.276 152.929 98.9284 154.207 92.3867L27.4848 19.2339C22.457 23.6089 18.0264 28.6228 14.3042 34.1506V34.1367Z" fill="#C07858"/>
<path d="M1.44263 68.886L124.22 139.775C127.415 137.428 130.415 134.83 133.193 132.025L3.67874 57.2332C2.63707 61.0527 1.88707 64.9555 1.45652 68.886H1.44263Z" fill="#C07858"/>
<path d="M1.15199 88.6679L107.346 149.974C110.43 148.696 113.43 147.237 116.333 145.571L0.471436 78.6957C0.471436 82.0291 0.707547 85.3624 1.15199 88.6679Z" fill="#C07858"/>
<path fill-rule="evenodd" clip-rule="evenodd" d="M85.1519 154.608L8.23528 110.191C6.83251 107.177 5.63806 104.08 4.63806 100.927L94.9853 153.094C91.7492 153.802 88.4575 154.316 85.1519 154.608Z" fill="#C07858"/>
</g>
</svg>
