<svg width="392" height="80" viewBox="0 0 392 80" fill="none" xmlns="http://www.w3.org/2000/svg">
<mask id="mask0_1_375" style="mask-type:luminance" maskUnits="userSpaceOnUse" x="0" y="0" width="80" height="80">
<path d="M40 0C62.094 0 80 17.9131 80 40C80 62.094 62.0869 80 40 80C17.9131 80.0071 0 62.094 0 40C0 17.9131 17.9131 0 40 0Z" fill="white"/>
</mask>
<g mask="url(#mask0_1_375)">
<path d="M5.91516 20.0493C4.71858 22.122 3.70719 24.2943 2.90234 26.5522L70.4736 65.5692C72.0191 63.7459 73.4009 61.7801 74.5975 59.7074L74.861 59.2516L6.1787 19.6006L5.90804 20.0493H5.91516Z" fill="#C07858"/>
<path d="M59.9809 5.42683C53.0365 1.40974 45.0379 -0.399376 37.0394 0.227404C29.0408 0.854185 21.4268 3.88837 15.1875 8.93823L79.3185 45.961C80.5721 38.0408 79.3898 29.9283 75.9354 22.6918C72.4809 15.4553 66.9183 9.43681 59.9738 5.42683H59.9809Z" fill="#C07858"/>
<path d="M7.33984 17.5057L75.8441 57.057C77.3398 53.9872 78.4296 50.7322 79.0848 47.3775L14.0991 9.86328C11.5208 12.1069 9.24868 14.6781 7.33984 17.5129V17.5057Z" fill="#C07858"/>
<path d="M0.742188 35.3264L63.7052 71.6796C65.3433 70.4759 66.8818 69.144 68.3063 67.7053L1.88891 29.3506C1.35472 31.3093 0.970108 33.3107 0.74931 35.3264H0.742188Z" fill="#C07858"/>
<path d="M0.59119 45.4707L55.0499 76.9094C56.6311 76.2542 58.1695 75.5063 59.6581 74.6516L0.242188 40.3567C0.242188 42.0661 0.36327 43.7755 0.59119 45.4707Z" fill="#C07858"/>
<path fill-rule="evenodd" clip-rule="evenodd" d="M43.6681 79.2863L4.22364 56.5085C3.50426 54.9629 2.89173 53.3746 2.37891 51.7578L48.7108 78.51C47.0513 78.8732 45.3632 79.1367 43.6681 79.2863Z" fill="#C07858"/>
</g>
<path d="M363.306 28.5752V35.5838C364.424 33.1977 366.076 31.3174 368.256 29.9428C370.492 28.5183 373.234 27.806 376.482 27.806C381.917 27.806 385.777 29.3801 388.063 32.5282C390.4 35.6764 391.568 39.7647 391.568 44.7932V66.6593H385.777V45.5553C385.777 41.4883 384.937 38.2903 383.263 35.9541C381.589 33.618 378.868 32.4499 375.108 32.4499C371.347 32.4499 368.377 33.6963 366.347 36.1821C364.317 38.6749 363.298 41.7946 363.298 45.5553V66.6593H357.508V28.561H363.298L363.306 28.5752Z" fill="#616867"/>
<path d="M332.107 67.4348C328.197 67.4348 324.821 66.5445 321.972 64.771C319.13 62.9903 316.972 60.6043 315.497 57.6057C314.023 54.5573 313.289 51.2311 313.289 47.6271C313.289 44.0231 314.023 40.7183 315.497 37.7197C316.972 34.6712 319.13 32.2567 321.972 30.4832C324.814 28.7026 328.197 27.8194 332.107 27.8194C336.017 27.8194 339.393 28.7097 342.242 30.4832C345.141 32.2638 347.321 34.6712 348.795 37.7197C350.269 40.7183 351.003 44.016 351.003 47.6271C351.003 51.2382 350.269 54.5573 348.795 57.6057C347.321 60.6043 345.141 62.9903 342.242 64.771C339.4 66.5516 336.017 67.4348 332.107 67.4348ZM332.107 62.5559C336.117 62.5559 339.294 61.1812 341.63 58.4391C343.966 55.6969 345.134 52.0858 345.134 47.62C345.134 43.1542 343.966 39.543 341.63 36.8009C339.294 34.0587 336.117 32.6841 332.107 32.6841C328.097 32.6841 324.999 34.0587 322.663 36.8009C320.326 39.543 319.158 43.1542 319.158 47.62C319.158 52.0858 320.326 55.6969 322.663 58.4391C324.999 61.1812 328.147 62.5559 332.107 62.5559Z" fill="#616867"/>
<path d="M302.007 19.8849C300.889 19.8849 299.928 19.5074 299.108 18.7453C298.346 17.9333 297.969 16.9646 297.969 15.8464C297.969 14.7282 298.353 13.788 299.108 13.0259C299.92 12.2139 300.889 11.808 302.007 11.808C303.126 11.808 304.066 12.2139 304.828 13.0259C305.64 13.788 306.046 14.7282 306.046 15.8464C306.046 16.9646 305.64 17.9262 304.828 18.7453C304.066 19.5074 303.126 19.8849 302.007 19.8849ZM304.899 66.6726H299.108V28.5743H304.899V66.6726Z" fill="#616867"/>
<path d="M230.895 47.6191C230.895 44.0649 231.607 40.7886 233.031 37.79C234.456 34.7914 236.586 32.3769 239.435 30.5535C242.276 28.7231 245.709 27.8114 249.719 27.8114C254.392 27.8114 258.252 29.0792 261.301 31.6219C264.399 34.1077 266.301 37.3342 267.013 41.3014H260.994C260.439 38.659 259.142 36.5792 257.105 35.055C255.125 33.4809 252.661 32.6903 249.712 32.6903C245.595 32.6903 242.397 34.0863 240.111 36.8783C237.875 39.6703 236.756 43.253 236.756 47.6191C236.756 51.9852 237.875 55.5678 240.111 58.3598C242.397 61.1518 245.595 62.5478 249.712 62.5478C252.661 62.5478 255.125 61.7857 257.105 60.2615C259.135 58.6874 260.432 56.5792 260.994 53.9367H267.013C266.301 57.8968 264.399 61.1518 261.301 63.6874C258.252 66.1732 254.392 67.4196 249.719 67.4196C245.709 67.4196 242.276 66.508 239.435 64.6775C236.593 62.847 234.456 60.4325 233.031 57.441C231.607 54.4424 230.895 51.1661 230.895 47.6119V47.6191Z" fill="#616867"/>
<path d="M196.942 28.5752V35.5838C198.061 33.1977 199.713 31.3174 201.892 29.9428C204.129 28.5183 206.871 27.806 210.119 27.806C215.553 27.806 219.414 29.3801 221.7 32.5282C224.036 35.6764 225.204 39.7647 225.204 44.7932V66.6593H219.414V45.5553C219.414 41.4883 218.573 38.2903 216.9 35.9541C215.226 33.618 212.505 32.4499 208.744 32.4499C204.984 32.4499 202.014 33.6963 199.984 36.1821C197.954 38.6749 196.935 41.7946 196.935 45.5553V66.6593H191.145V28.561H196.935L196.942 28.5752Z" fill="#616867"/>
<path d="M154.529 28.5736V49.7559C154.529 58.4952 158.083 62.8613 165.198 62.8613C169.009 62.8613 171.929 61.6149 173.959 59.1291C175.989 56.5864 177.008 53.4667 177.008 49.7559V28.5736H182.798V66.6719H177.008V59.6633C175.839 62.0494 174.166 63.9582 171.979 65.3756C169.792 66.7502 167.079 67.434 163.824 67.434C158.389 67.434 154.5 65.8884 152.164 62.783C149.878 59.6348 148.738 55.5465 148.738 50.518V28.5736H154.529Z" fill="#616867"/>
<path d="M109.948 15.4194C107.876 17.1431 106.672 19.6929 106.672 22.3923V37.6416H112.463V18.1331H141.871V13.3325H115.725C113.616 13.3325 111.572 14.0661 109.948 15.4194Z" fill="#616867"/>
<path d="M110.468 39.2717L109.336 40.1977C107.648 41.5723 106.672 43.6307 106.672 45.8031V66.672H112.463V42.3629H139.891V37.6407H115.041C113.374 37.6407 111.757 38.2176 110.468 39.2717Z" fill="#616867"/>
<path d="M276.461 33.1454V56.4644C276.461 59.869 277.351 62.4331 279.125 64.1567C280.955 65.8305 283.925 66.671 288.042 66.671H291.091V62.1767H289.26C286.668 62.1767 284.844 61.7209 283.776 60.802C282.757 59.8405 282.252 58.1596 282.252 55.7736V33.1454H276.461Z" fill="#616867"/>
<path d="M291.089 28.5737H282.25V17.9041H276.459V28.5737H271.195V33.1463H276.452H276.459H282.25H291.089V28.5737Z" fill="#616867"/>
</svg>
